<?xml version="1.0" standalone="no"?>
<!DOCTYPE svg PUBLIC "-//W3C//DTD SVG 20010904//EN"
 "http://www.w3.org/TR/2001/REC-SVG-20010904/DTD/svg10.dtd">
<svg version="1.0" xmlns="http://www.w3.org/2000/svg"
 width="200.000000pt" height="200.000000pt" viewBox="0 0 200.000000 200.000000"
 preserveAspectRatio="xMidYMid meet">

<g transform="translate(0.000000,200.000000) scale(0.100000,-0.100000)"
fill="#FFF" stroke="none">
<path d="M602 1468 c-9 -9 -12 -73 -12 -225 l0 -212 -36 -17 c-54 -26 -84 -77
-84 -145 0 -67 27 -114 82 -144 l37 -20 3 -84 c2 -67 7 -86 20 -95 13 -8 23
-8 35 0 14 9 19 28 21 95 l3 84 37 20 c53 29 82 77 82 137 0 69 -24 114 -76
144 l-44 26 0 212 c0 217 -3 236 -40 236 -9 0 -21 -5 -28 -12z m85 -540 c30
-28 32 -89 3 -118 -60 -60 -154 -10 -141 75 9 60 92 86 138 43z"/>
<path d="M972 1468 c-8 -8 -12 -45 -12 -100 0 -69 -3 -88 -14 -88 -21 0 -74
-47 -91 -81 -19 -36 -19 -112 0 -148 17 -33 70 -81 91 -81 11 0 14 -39 16
-216 3 -194 5 -218 20 -228 13 -8 23 -8 35 0 16 10 18 34 21 227 l2 215 24 6
c32 8 83 68 95 113 16 56 -3 115 -50 158 -22 19 -46 35 -54 35 -12 0 -15 17
-15 88 0 89 -8 112 -40 112 -9 0 -21 -5 -28 -12z m83 -283 c38 -37 37 -88 -1
-122 -33 -30 -78 -30 -109 2 -52 51 -16 145 55 145 19 0 40 -9 55 -25z"/>
<path d="M1342 1468 c-9 -9 -12 -73 -12 -225 l0 -212 -36 -17 c-54 -26 -84
-77 -84 -145 0 -67 27 -114 82 -144 l37 -20 3 -84 c2 -67 7 -86 21 -95 12 -8
22 -8 35 0 13 9 18 28 20 95 l3 84 37 20 c54 29 82 77 82 139 0 67 -26 115
-78 144 l-42 23 0 213 c0 217 -3 236 -40 236 -9 0 -21 -5 -28 -12z m85 -540
c30 -28 32 -89 3 -118 -60 -60 -154 -10 -141 75 9 60 92 86 138 43z"/>
</g>
</svg>