<?xml version="1.0" standalone="no"?>
<!DOCTYPE svg PUBLIC "-//W3C//DTD SVG 20010904//EN"
 "http://www.w3.org/TR/2001/REC-SVG-20010904/DTD/svg10.dtd">
<svg version="1.0" xmlns="http://www.w3.org/2000/svg"
 width="532.000000pt" height="554.000000pt" viewBox="0 0 532.000000 554.000000"
 preserveAspectRatio="xMidYMid meet">

<g transform="translate(0.000000,554.000000) scale(0.100000,-0.100000)"
fill="#000000" stroke="none">
<path d="M1140 5309 c-339 -57 -635 -301 -744 -615 -59 -168 -56 -69 -56
-1934 0 -1523 2 -1719 16 -1788 76 -368 329 -638 699 -744 80 -22 83 -22 840
-25 711 -3 762 -2 794 14 97 50 106 182 18 247 -28 21 -40 21 -775 26 -666 5
-753 8 -807 23 -225 65 -393 227 -466 451 l-24 71 0 1725 0 1725 22 70 c71
221 243 387 468 452 54 15 142 18 822 22 l761 6 27 25 c82 77 70 195 -25 242
-32 17 -89 18 -775 17 -407 -1 -765 -5 -795 -10z"/>
<path d="M3940 3822 c-82 -41 -106 -144 -51 -218 16 -21 176 -185 355 -364
l326 -325 -1502 -5 c-1457 -5 -1504 -6 -1535 -24 -98 -60 -94 -201 7 -253 l44
-23 1501 0 1500 -1 -352 -347 c-198 -195 -357 -359 -363 -375 -45 -125 66
-241 187 -197 32 12 986 960 1009 1002 18 35 18 101 0 136 -21 40 -965 977
-1003 996 -41 21 -80 20 -123 -2z"/>
</g>
</svg>
